<svg width="1230" height="1252" viewBox="0 0 1230 1252" fill="none" xmlns="http://www.w3.org/2000/svg">
<g filter="url(#filter0_d_1361_508)">
<path d="M6.5 1241.5L26.5 1223.5L40.5 1241.5L61 1223.5L75 1241.5L97 1223.5L113 1241.5L131 1223.5L149 1241.5L163.5 1223.5L181.5 1241.5L209.5 1223.5L225.5 1241.5L241.5 1223.5L257.5 1241.5L270 1223.5L286 1241.5L298 1223.5L322 1241.5L338 1223.5L354 1241.5L370 1223.5L388.5 1241.5L404.5 1223.5L426.5 1241.5L444.5 1223.5L462.5 1241.5L478.5 1223.5L505 1241.5L523 1223.5L547 1241.5L567 1223.5L591 1241.5L607.5 1223.5L633.5 1241.5L649.5 1223.5L667.5 1241.5L687.5 1223.5L710 1241.5L732 1223.5L750 1241.5L766 1223.5L792 1241.5L810 1223.5L836.5 1241.5L852.5 1223.5L876.5 1241.5L898.5 1223.5L916.5 1241.5L939 1223.5L961 1241.5L979 1223.5L997 1241.5L1013 1223.5L1031 1241.5L1047.5 1223.5L1063.5 1241.5L1079.5 1223.5L1093.5 1241.5L1109.5 1223.5L1129.5 1241.5L1149.5 1223.5L1168 1241.5L1182 1223.5L1196 1241.5L1212 1223.5L1224.5 1243" stroke="black" stroke-width="2"/>
<line x1="5" y1="4.37114e-08" x2="4.99995" y2="1244" stroke="black" stroke-width="2"/>
<line x1="1225" y1="4.37114e-08" x2="1225" y2="1244" stroke="black" stroke-width="2"/>
</g>
<defs>
<filter id="filter0_d_1361_508" x="0" y="0" width="1230" height="1252" filterUnits="userSpaceOnUse" color-interpolation-filters="sRGB">
<feFlood flood-opacity="0" result="BackgroundImageFix"/>
<feColorMatrix in="SourceAlpha" type="matrix" values="0 0 0 0 0 0 0 0 0 0 0 0 0 0 0 0 0 0 127 0" result="hardAlpha"/>
<feOffset dy="4"/>
<feGaussianBlur stdDeviation="2"/>
<feComposite in2="hardAlpha" operator="out"/>
<feColorMatrix type="matrix" values="0 0 0 0 0 0 0 0 0 0 0 0 0 0 0 0 0 0 0.25 0"/>
<feBlend mode="normal" in2="BackgroundImageFix" result="effect1_dropShadow_1361_508"/>
<feBlend mode="normal" in="SourceGraphic" in2="effect1_dropShadow_1361_508" result="shape"/>
</filter>
</defs>
</svg>
