<svg width="1230" height="1046" viewBox="0 0 1230 1046" fill="none" xmlns="http://www.w3.org/2000/svg">
<g filter="url(#filter0_d_1361_508)">
<path d="M6.5 1035.91L26.5 1020.89L40.5 1035.91L61 1020.89L75 1035.91L97 1020.89L113 1035.91L131 1020.89L149 1035.91L163.5 1020.89L181.5 1035.91L209.5 1020.89L225.5 1035.91L241.5 1020.89L257.5 1035.91L270 1020.89L286 1035.91L298 1020.89L322 1035.91L338 1020.89L354 1035.91L370 1020.89L388.5 1035.91L404.5 1020.89L426.5 1035.91L444.5 1020.89L462.5 1035.91L478.5 1020.89L505 1035.91L523 1020.89L547 1035.91L567 1020.89L591 1035.91L607.5 1020.89L633.5 1035.91L649.5 1020.89L667.5 1035.91L687.5 1020.89L710 1035.91L732 1020.89L750 1035.91L766 1020.89L792 1035.91L810 1020.89L836.5 1035.91L852.5 1020.89L876.5 1035.91L898.5 1020.89L916.5 1035.91L939 1020.89L961 1035.91L979 1020.89L997 1035.91L1013 1020.89L1031 1035.91L1047.5 1020.89L1063.5 1035.91L1079.5 1020.89L1093.5 1035.91L1109.5 1020.89L1129.5 1035.91L1149.5 1020.89L1168 1035.91L1182 1020.89L1196 1035.91L1212 1020.89L1224.5 1037.17" stroke="black" stroke-width="2"/>
<line x1="5" y1="4.37114e-08" x2="4.99995" y2="1038" stroke="black" stroke-width="2"/>
<line x1="1225" y1="4.37114e-08" x2="1225" y2="1038" stroke="black" stroke-width="2"/>
</g>
<defs>
<filter id="filter0_d_1361_508" x="0" y="0" width="1230" height="1046" filterUnits="userSpaceOnUse" color-interpolation-filters="sRGB">
<feFlood flood-opacity="0" result="BackgroundImageFix"/>
<feColorMatrix in="SourceAlpha" type="matrix" values="0 0 0 0 0 0 0 0 0 0 0 0 0 0 0 0 0 0 127 0" result="hardAlpha"/>
<feOffset dy="4"/>
<feGaussianBlur stdDeviation="2"/>
<feComposite in2="hardAlpha" operator="out"/>
<feColorMatrix type="matrix" values="0 0 0 0 0 0 0 0 0 0 0 0 0 0 0 0 0 0 0.25 0"/>
<feBlend mode="normal" in2="BackgroundImageFix" result="effect1_dropShadow_1361_508"/>
<feBlend mode="normal" in="SourceGraphic" in2="effect1_dropShadow_1361_508" result="shape"/>
</filter>
</defs>
</svg>
