<svg width="1090" height="664" viewBox="0 0 1090 664" fill="none" xmlns="http://www.w3.org/2000/svg">
<g filter="url(#filter0_d_1361_508)">
<path d="M6.2124 653.684L23.9101 644.206L36.2984 653.684L54.4385 644.206L66.8269 653.684L86.2943 644.206L100.452 653.684L116.38 644.206L132.308 653.684L145.139 644.206L161.067 653.684L185.844 644.206L200.002 653.684L214.16 644.206L228.318 653.684L239.379 644.206L253.537 653.684L264.156 644.206L285.393 653.684L299.551 644.206L313.709 653.684L327.867 644.206L344.238 653.684L358.396 644.206L377.863 653.684L393.791 644.206L409.719 653.684L423.877 644.206L447.327 653.684L463.255 644.206L484.492 653.684L502.189 644.206L523.427 653.684L538.027 644.206L561.034 653.684L575.192 644.206L591.12 653.684L608.818 644.206L628.728 653.684L648.195 644.206L664.123 653.684L678.281 644.206L701.288 653.684L717.216 644.206L740.666 653.684L754.824 644.206L776.061 653.684L795.528 644.206L811.456 653.684L831.366 644.206L850.833 653.684L866.761 644.206L882.689 653.684L896.847 644.206L912.775 653.684L927.376 644.206L941.534 653.684L955.692 644.206L968.081 653.684L982.239 644.206L999.936 653.684L1017.63 644.206L1034 653.684L1046.39 644.206L1058.78 653.684L1072.94 644.206L1084 654.473" stroke="black" stroke-width="2"/>
<line x1="5" y1="4.37114e-08" x2="4.99997" y2="655" stroke="black" stroke-width="2"/>
<line x1="1084.56" y1="4.93979e-08" x2="1084.56" y2="655" stroke="black" stroke-width="2"/>
</g>
<defs>
<filter id="filter0_d_1361_508" x="0" y="0" width="1089.56" height="663.206" filterUnits="userSpaceOnUse" color-interpolation-filters="sRGB">
<feFlood flood-opacity="0" result="BackgroundImageFix"/>
<feColorMatrix in="SourceAlpha" type="matrix" values="0 0 0 0 0 0 0 0 0 0 0 0 0 0 0 0 0 0 127 0" result="hardAlpha"/>
<feOffset dy="4"/>
<feGaussianBlur stdDeviation="2"/>
<feComposite in2="hardAlpha" operator="out"/>
<feColorMatrix type="matrix" values="0 0 0 0 0 0 0 0 0 0 0 0 0 0 0 0 0 0 0.25 0"/>
<feBlend mode="normal" in2="BackgroundImageFix" result="effect1_dropShadow_1361_508"/>
<feBlend mode="normal" in="SourceGraphic" in2="effect1_dropShadow_1361_508" result="shape"/>
</filter>
</defs>
</svg>
